<?xml version="1.0" encoding="utf-8"?>
<!-- Generator: Adobe Illustrator 16.0.0, SVG Export Plug-In . SVG Version: 6.00 Build 0)  -->
<!DOCTYPE svg PUBLIC "-//W3C//DTD SVG 1.1//EN" "http://www.w3.org/Graphics/SVG/1.1/DTD/svg11.dtd">
<svg version="1.1" id="Layer_1" xmlns="http://www.w3.org/2000/svg" xmlns:xlink="http://www.w3.org/1999/xlink" x="0px" y="0px"
	 width="1024px" height="1024px" viewBox="0 0 1024 1024" enable-background="new 0 0 1024 1024" xml:space="preserve">
<g>
	<g>
		<g>
			<path fill="#010101" d="M336,125c17-10,37-5,56-6c8-1,16-3,24-6c-7-13-3-28-2-42c1-16,0-33-5-48c-22,12-47,4-71,9c-8,1-15,2-22,7
				c5,6,8,13,9,21C326,82,325,105,336,125L336,125z"/>
		</g>
		<g>
			<path fill="#010101" d="M424,99c13-5,26-1,39,1c14,2,28,1,42-1c-2-6-3-12-2-19c6-25,11-49,5-74c-6,4-13,6-20,5c-25-1-50-7-74,1
				c1,1,2,2,3,3c1,2,2,5,3,7c3,6,3,13,2,20C419,61,416,81,424,99L424,99z"/>
		</g>
		<g>
			<path fill="#010101" d="M258,169c2-3,5-5,8-6c22-7,46-8,67-18c-3-4-5-9-6-14c-5-26-2-51-14-74c-13,10-31,11-47,13
				c-16,3-31,8-44,17c14,15,15,36,21,55C246,152,252,161,258,169L258,169z"/>
		</g>
		<g>
			<path fill="#010101" d="M514,92c7-3,14-4,21-2c12,5,23,9,35,14c6,2,12,2,18,3c-2-5-1-10,1-15c5-12,13-22,19-34c5-12,9-25,8-38
				c-3,0-7,0-10,0c-15-3-27-10-41-14c-16-4-33-5-49,0c1,2,3,4,4,6c5,19-5,36-7,54C513,75,512,83,514,92L514,92z"/>
		</g>
		<g>
			<path fill="#010101" d="M110,645c-8-13-3-30-2-45c1-8,0-15-1-23c-1-4-3-8-3-13c-7,4-15,4-23,3c-23-4-47-8-69-1c7,11,7,24,5,36
				c-2,19-2,39,6,57c6-5,14-7,21-8c12-1,23,2,35,1C90,651,100,648,110,645L110,645z"/>
		</g>
		<g>
			<path fill="#010101" d="M92,468c-1-7-1-14,2-21c8-17,19-32,24-50c-3-1-5-1-8-1c-2-1-4-2-7-3c-2-1-5-2-7-4c-18-15-36-30-60-33
				c2,9-5,16-7,24c-9,12-15,26-20,40c-3,10-4,21-3,31c5-1,10-3,15-2c14,3,27,9,40,14C71,466,81,467,92,468L92,468z"/>
		</g>
		<g>
			<path fill="#010101" d="M107,383c0-9,5-16,10-23c8-9,17-16,24-25c4-5,6-11,10-15c-5-1-10-4-14-7c-18-18-29-43-53-52c-1-1-2,3-3,6
				c-1,2-2,4-4,6c-21,20-43,40-49,69c13-1,23,8,33,15C75,368,90,378,107,383L107,383z"/>
		</g>
		<g>
			<path fill="#010101" d="M74,242c17,7,26,23,38,37c5,6,11,11,17,16c4,2,8,4,11,7c3-4,3-9,7-12c17-14,36-24,51-39c-8-6-13-14-18-22
				c-9-19-17-38-33-52c-3,6-7,9-12,13C112,206,86,217,74,242L74,242z"/>
		</g>
		<g>
			<path fill="#010101" d="M1001,365c-16,13-37,5-56,7c-11,1-21,4-31,7c8,13,3,30,2,45c-1,8,0,15,1,23c1,4,3,8,3,13c7-4,15-4,23-3
				c23,4,47,8,69,1c-7-11-7-24-5-36C1009,403,1009,383,1001,365L1001,365z"/>
		</g>
		<g>
			<path fill="#010101" d="M94,524c4-15,9-31,6-47c-16,3-31-6-46-11s-30-6-45-3c4,8,4,17,2,25c-7,24-12,48-4,72c1-1,2-2,3-3
				c2-1,5-2,7-3c5-1,10-2,15-1c21,3,42,9,62,1C89,544,91,534,94,524L94,524z"/>
		</g>
		<g>
			<path fill="#010101" d="M930,500c-3,15-9,31-6,47c16-3,31,6,46,11s30,6,45,3c-4-8-4-17-2-25c7-24,12-48,4-72c-1,1-2,2-3,3
				c-2,1-5,2-7,3c-5,1-10,2-15,1c-21-3-42-9-62-1C935,480,933,490,930,500L930,500z"/>
		</g>
		<g>
			<path fill="#010101" d="M734,48c0,3-1,5-3,7c-1,1,0,3-1,4c-8,12-18,20-28,31c-2,3-4,6-7,9c-5,7-10,14-13,22c8,1,13,6,19,11
				c14,13,24,30,39,41c3-9,11-16,19-21c19-11,37-21,48-39c-6-1-10-6-14-10C775,82,761,58,734,48L734,48z"/>
		</g>
		<g>
			<path fill="#010101" d="M826,223c8,4,10,13,13,21c5,18,9,36,19,51c11-9,26-11,40-12c8-1,14-4,22-5c8-2,16-6,23-10c-4-5-7-10-9-15
				c-7-22-9-44-22-65c-2-3-5-5-7-9c-15,16-38,20-58,29C839,212,833,218,826,223L826,223z"/>
		</g>
		<g>
			<path fill="#010101" d="M879,296c5,5,7,13,8,20c2,19,2,39,10,57c6-3,12-5,18-5c24,0,49,1,72-8c-3-4-5-8-7-13c-6-27-1-55-16-79
				c-2,1-4,4-6,5s-5,2-7,3c-18,6-37,4-55,11c-4,2-7,4-11,5C883,293,881,295,879,296L879,296z"/>
		</g>
		<g>
			<path fill="#010101" d="M599,97c7,0,14,1,21,5c16,10,29,23,46,30c1-10,8-17,14-24c16-14,30-30,37-50c-16-4-27-16-40-26
				c-15-11-31-17-49-18c3,9-2,18-6,26C613,58,602,76,599,97L599,97z"/>
		</g>
		<g>
			<path fill="#010101" d="M932,556c1,7,1,14-2,21c-8,17-19,32-24,50c3,1,5,1,8,1c2,1,4,2,7,3c2,1,5,2,7,4c18,15,36,30,60,33
				c-2-9,5-16,7-24c9-12,15-26,20-40c3-10,4-21,3-31c-5,1-10,3-15,2c-14-3-27-9-40-14C953,558,943,557,932,556L932,556z"/>
		</g>
		<g>
			<path fill="#010101" d="M950,782c-17-7-26-23-38-37c-5-6-11-11-17-16c-4-2-8-4-11-7c-3,4-3,9-7,12c-17,14-36,24-51,39
				c8,6,13,14,18,22c9,19,17,38,33,52c3-6,7-9,12-13C912,818,938,807,950,782L950,782z"/>
		</g>
		<g>
			<path fill="#010101" d="M760,164c4,1,7,5,10,8c13,18,20,39,34,55c4-3,8-7,12-10c13-7,28-10,41-16c9-5,18-10,26-17
				c-7-5-11-12-15-19c-11-22-19-46-41-60c-2,5-6,8-9,12C798,133,774,143,760,164L760,164z"/>
		</g>
		<g>
			<path fill="#010101" d="M917,641c0,9-5,16-10,23c-8,9-17,16-24,25c-4,5-6,11-10,15c5,1,10,4,14,7c18,18,29,43,53,52c1,1,2-3,3-6
				c1-2,2-4,4-6c21-20,43-40,49-69c-13,1-23-8-33-15C949,656,934,646,917,641L917,641z"/>
		</g>
		<g>
			<path fill="#010101" d="M833,795c-4,4-8,8-13,11c-19,9-39,15-56,27c6,5,9,13,12,20c6,22,9,44,24,62c5-5,11-9,17-12
				c24-8,49-16,67-35c-6-3-10-9-13-14C859,833,850,811,833,795L833,795z"/>
		</g>
		<g>
			<path fill="#010101" d="M191,229c4-4,8-8,13-11c19-9,39-15,56-27c-6-5-9-13-12-20c-6-22-9-44-24-62c-5,5-11,9-17,12
				c-24,8-49,16-67,35c6,3,10,9,13,14C165,191,174,213,191,229L191,229z"/>
		</g>
		<g>
			<path fill="#010101" d="M264,860c-4-1-7-5-10-8c-13-18-20-39-34-55c-4,3-8,7-12,10c-13,7-28,10-41,16c-9,5-18,10-26,17
				c7,4,11,12,15,19c12,22,19,46,41,60c2-5,6-8,9-12C226,891,250,881,264,860L264,860z"/>
		</g>
		<g>
			<path fill="#010101" d="M290,976c0-3,1-5,3-7c1-1,0-3,1-4c8-12,18-20,28-31c2-3,4-6,7-9c5-7,10-14,13-22c-8-1-13-6-19-11
				c-14-13-24-30-39-41c-3,9-11,16-19,21c-19,11-37,21-48,39c6,1,10,6,14,10C249,942,263,966,290,976L290,976z"/>
		</g>
		<g>
			<path fill="#010101" d="M145,728c-5-5-7-13-8-20c-2-19-2-39-10-57c-6,3-12,5-18,5c-24,0-49-1-72,8c3,4,5,8,7,13c6,27,1,55,16,79
				c2-1,4-4,6-5s5-2,7-3c18-6,37-4,55-11c4-2,7-4,11-5C141,731,143,729,145,728L145,728z"/>
		</g>
		<g>
			<path fill="#010101" d="M198,801c-8-4-10-13-13-21c-5-18-9-36-19-51c-11,9-26,11-40,12c-8,1-14,4-22,5c-8,2-16,6-23,10
				c4,5,7,10,9,15c7,22,9,44,22,65c2,3,5,5,7,9c15-16,38-20,58-29C185,812,191,806,198,801L198,801z"/>
		</g>
		<g>
			<path fill="#010101" d="M425,927c-7,0-14-1-21-5c-16-10-29-23-46-30c-1,10-8,17-14,24c-16,14-30,30-37,50c16,4,27,16,40,26
				c15,11,31,17,49,18c-3-9,2-18,6-26C410,965,422,948,425,927L425,927z"/>
		</g>
		<g>
			<path fill="#010101" d="M688,899c-17,10-37,5-56,6c-8,1-16,3-24,6c7,13,3,28,2,42c-1,16,0,33,5,48c22-12,47-4,71-9c8-1,15-2,22-7
				c-5-6-8-13-9-21C698,942,699,919,688,899L688,899z"/>
		</g>
		<g>
			<path fill="#010101" d="M766,855c-2,3-5,5-8,6c-22,7-46,8-67,18c3,5,5,9,6,14c4,25,2,51,14,74c13-10,31-11,47-13c16-3,31-8,44-17
				c-14-15-15-36-21-55C778,872,772,863,766,855L766,855z"/>
		</g>
		<g>
			<path fill="#010101" d="M510,932c-7,3-14,4-21,2c-12-5-23-9-35-14c-6-2-12-2-18-3c2,5,1,10-1,15c-5,12-13,22-19,34
				c-5,12-9,25-8,38c3,0,7,0,10,0c15,3,27,10,41,14c16,4,33,5,49,0c-1-2-3-4-4-6c-5-19,5-36,7-54C511,949,512,941,510,932L510,932z"
				/>
		</g>
		<g>
			<path fill="#010101" d="M600,925c-13,5-26,1-39-1c-14-2-28-1-42,1c2,6,3,12,2,19c-6,25-11,49-5,74c6-4,13-6,20-5c25,1,50,7,74-1
				c-1-1-2-2-3-3c-1-2-2-5-3-7c-3-6-3-13-2-20C605,963,608,943,600,925L600,925z"/>
		</g>
	</g>
</g>
</svg>
