<?xml version="1.0" encoding="utf-8"?>
<!-- Generator: Adobe Illustrator 16.0.0, SVG Export Plug-In . SVG Version: 6.00 Build 0)  -->
<!DOCTYPE svg PUBLIC "-//W3C//DTD SVG 1.1//EN" "http://www.w3.org/Graphics/SVG/1.1/DTD/svg11.dtd">
<svg version="1.1" id="Layer_1" xmlns="http://www.w3.org/2000/svg" xmlns:xlink="http://www.w3.org/1999/xlink" x="0px" y="0px"
	 width="1024px" height="1024px" viewBox="0 0 1024 1024" enable-background="new 0 0 1024 1024" xml:space="preserve">
<g>
	<g>
		<path d="M512,1024c-69.097,0-136.154-13.543-199.308-40.255c-60.976-25.792-115.727-62.702-162.73-109.707
			c-47.005-47.004-83.916-101.754-109.707-162.73C13.544,648.154,0,581.098,0,512c0-69.098,13.544-136.155,40.254-199.308
			c25.791-60.975,62.701-115.726,109.707-162.73c47.005-47.006,101.755-83.916,162.73-109.707C375.845,13.544,442.902,0,512,0
			c69.098,0,136.154,13.544,199.308,40.254c60.977,25.792,115.727,62.702,162.73,109.707
			c47.005,47.004,83.915,101.754,109.707,162.73C1010.457,375.846,1024,442.903,1024,512c0,69.098-13.543,136.153-40.255,199.308
			c-25.792,60.978-62.703,115.728-109.707,162.73c-47.003,47.004-101.753,83.915-162.73,109.707
			C648.153,1010.457,581.098,1024,512,1024z M512,4.976c-68.429,0-134.834,13.412-197.37,39.862
			c-60.382,25.539-114.601,62.092-161.151,108.642S70.377,254.248,44.838,314.63C18.387,377.166,4.976,443.571,4.976,512
			c0,68.428,13.412,134.833,39.862,197.37c25.54,60.382,62.092,114.601,108.642,161.149
			c46.549,46.55,100.768,83.103,161.151,108.643c62.537,26.451,128.942,39.862,197.37,39.862s134.832-13.411,197.37-39.862
			c60.383-25.541,114.602-62.094,161.149-108.643c46.549-46.548,83.102-100.767,108.643-161.149
			c26.451-62.538,39.862-128.942,39.862-197.37s-13.411-134.833-39.862-197.37c-25.54-60.383-62.093-114.602-108.643-161.151
			C823.971,106.93,769.752,70.377,709.37,44.838C646.833,18.387,580.428,4.976,512,4.976z M512,933.339
			C279.672,933.339,90.66,744.327,90.66,512C90.66,279.672,279.672,90.66,512,90.66c232.327,0,421.339,189.012,421.339,421.34
			C933.339,744.327,744.327,933.339,512,933.339z M512,95.636C282.417,95.636,95.636,282.417,95.636,512
			c0,229.584,186.78,416.363,416.364,416.363c229.584,0,416.363-186.779,416.363-416.363C928.363,282.417,741.584,95.636,512,95.636
			z"/>
	</g>
	<g>
		<line x1="512" y1="2.488" x2="512" y2="93.148"/>
		<rect x="509.512" y="2.488" width="4.976" height="90.66"/>
	</g>
	<g>
		<line x1="930.85" y1="512" x2="1021.512" y2="512"/>
		<rect x="930.85" y="509.512" width="90.662" height="4.976"/>
	</g>
	<g>
		<line x1="2.488" y1="512" x2="93.148" y2="512"/>
		<rect x="2.488" y="509.512" width="90.66" height="4.976"/>
	</g>
	<g>
		<line x1="808.034" y1="215.966" x2="872.28" y2="151.721"/>
		
			<rect x="837.669" y="138.415" transform="matrix(0.7071 0.7072 -0.7072 0.7071 376.1233 -540.2663)" width="4.975" height="90.857"/>
	</g>
	<g>
		<line x1="151.72" y1="872.279" x2="215.965" y2="808.034"/>
		
			<rect x="181.355" y="794.729" transform="matrix(0.7071 0.7072 -0.7072 0.7071 647.9771 116.1121)" width="4.976" height="90.856"/>
	</g>
	<g>
		<line x1="215.967" y1="215.968" x2="151.721" y2="151.721"/>
		
			<rect x="138.415" y="181.357" transform="matrix(0.7071 0.7071 -0.7071 0.7071 183.8462 -76.1508)" width="90.859" height="4.975"/>
	</g>
	<g>
		<line x1="872.279" y1="872.28" x2="808.033" y2="808.035"/>
		
			<rect x="794.728" y="837.67" transform="matrix(0.7071 0.7071 -0.7071 0.7071 840.1571 -348.0033)" width="90.856" height="4.975"/>
	</g>
</g>
</svg>
