<?xml version="1.0" encoding="utf-8"?>
<!-- Generator: Adobe Illustrator 16.0.0, SVG Export Plug-In . SVG Version: 6.00 Build 0)  -->
<!DOCTYPE svg PUBLIC "-//W3C//DTD SVG 1.1//EN" "http://www.w3.org/Graphics/SVG/1.1/DTD/svg11.dtd">
<svg version="1.1" id="Layer_1" xmlns="http://www.w3.org/2000/svg" xmlns:xlink="http://www.w3.org/1999/xlink" x="0px" y="0px"
	 width="1024px" height="1024px" viewBox="0 0 1024 1024" enable-background="new 0 0 1024 1024" xml:space="preserve">
<g>
	<path fill="#010101" d="M344.736,125.173c23.997-10.39,49.149-18.611,75.213-24.419l-18.854-88.702
		c-32.336,7.141-63.524,17.337-93.245,30.273L344.736,125.173z"/>
	<path fill="#010101" d="M428.824,98.876c25.46-5.098,51.747-7.903,78.64-8.187V0.029c-33.356,0.29-65.951,3.766-97.495,10.144
		L428.824,98.876z"/>
	<path fill="#010101" d="M268.006,168.457c21.416-15.237,44.32-28.516,68.447-39.589l-36.885-82.847
		c-29.944,13.673-58.341,30.145-84.854,49.085L268.006,168.457z"/>
	<path fill="#010101" d="M516.534,90.689c26.894,0.284,53.181,3.089,78.642,8.187l18.854-88.703
		c-31.544-6.379-64.14-9.855-97.496-10.145V90.689z"/>
	<path fill="#010101" d="M109.8,637.916c-7.779-24.875-13.317-50.74-16.372-77.361l-90.172,9.478
		c3.726,33.022,10.595,65.093,20.297,95.906L109.8,637.916z"/>
	<path fill="#010101" d="M93.428,463.447c3.055-26.621,8.592-52.486,16.372-77.361l-86.246-28.023
		c-9.702,30.814-16.572,62.883-20.297,95.906L93.428,463.447z"/>
	<path fill="#010101" d="M112.601,377.459c8.495-25.228,19.316-49.385,32.203-72.223l-78.529-45.339
		c-16.029,28.28-29.446,58.234-39.92,89.539L112.601,377.459z"/>
	<path fill="#010101" d="M70.811,252.044l78.532,45.34c13.51-22.78,29.106-44.175,46.524-63.928l-67.379-60.668
		C106.848,197.236,87.508,223.767,70.811,252.044z"/>
	<path fill="#010101" d="M1000.446,358.064L914.2,386.087c7.779,24.875,13.317,50.74,16.371,77.36l90.172-9.478
		C1017.019,420.947,1010.148,388.878,1000.446,358.064z"/>
	<path fill="#010101" d="M90.66,512c0-13.331,0.626-26.516,1.837-39.531l-90.172-9.478C0.793,479.123,0,495.468,0,512
		c0,16.532,0.793,32.878,2.326,49.009l90.172-9.478C91.287,538.517,90.66,525.332,90.66,512z"/>
	<path fill="#010101" d="M933.34,512c0,13.332-0.627,26.517-1.838,39.531l90.173,9.478c1.531-16.131,2.325-32.477,2.325-49.009
		c0-16.532-0.794-32.877-2.325-49.008l-90.173,9.478C932.713,485.484,933.34,498.669,933.34,512z"/>
	<path fill="#010101" d="M724.432,46.021l-36.886,82.847c24.128,11.073,47.032,24.352,68.447,39.589l53.293-73.35
		C782.772,76.166,754.375,59.694,724.432,46.021z"/>
	<path fill="#010101" d="M828.133,233.456c17.417,19.752,33.015,41.148,46.524,63.928l78.532-45.34
		c-16.697-28.277-36.037-54.809-57.678-79.257L828.133,233.456z"/>
	<path fill="#010101" d="M879.196,305.237c12.887,22.837,23.708,46.995,32.203,72.223l86.246-28.023
		c-10.475-31.304-23.891-61.259-39.921-89.539L879.196,305.237z"/>
	<path fill="#010101" d="M604.049,100.753c26.063,5.809,51.217,14.029,75.213,24.419l36.886-82.848
		c-29.721-12.937-60.908-23.132-93.244-30.273L604.049,100.753z"/>
	<path fill="#010101" d="M930.571,560.555c-3.055,26.621-8.593,52.486-16.372,77.361l86.246,28.022
		c9.702-30.813,16.572-62.883,20.298-95.906L930.571,560.555z"/>
	<path fill="#010101" d="M953.188,771.958l-78.532-45.341c-13.51,22.779-29.107,44.175-46.524,63.928l67.379,60.669
		C917.151,826.766,936.491,800.235,953.188,771.958z"/>
	<path fill="#010101" d="M763.325,173.797c21.202,15.782,40.866,33.511,58.734,52.921l67.377-60.666
		c-22.107-24.107-46.494-46.089-72.819-65.606L763.325,173.797z"/>
	<path fill="#010101" d="M911.398,646.541c-8.495,25.229-19.315,49.386-32.203,72.223l78.529,45.339
		c16.029-28.28,29.446-58.234,39.92-89.538L911.398,646.541z"/>
	<path fill="#010101" d="M822.06,797.281c-17.868,19.41-37.533,37.141-58.735,52.922l53.293,73.352
		c26.325-19.518,50.712-41.5,72.819-65.607L822.06,797.281z"/>
	<path fill="#010101" d="M201.939,226.719c17.868-19.41,37.533-37.14,58.735-52.921l-53.292-73.352
		c-26.325,19.517-50.711,41.499-72.819,65.606L201.939,226.719z"/>
	<path fill="#010101" d="M260.675,850.203c-21.202-15.781-40.867-33.512-58.735-52.922l-67.377,60.666
		c22.108,24.107,46.495,46.09,72.82,65.607L260.675,850.203z"/>
	<path fill="#010101" d="M299.568,977.979l36.886-82.847c-24.127-11.073-47.032-24.352-68.447-39.589l-53.292,73.351
		C241.228,947.835,269.625,964.307,299.568,977.979z"/>
	<path fill="#010101" d="M144.804,718.764c-12.887-22.837-23.708-46.994-32.203-72.223l-86.246,28.023
		c10.474,31.304,23.891,61.258,39.92,89.538L144.804,718.764z"/>
	<path fill="#010101" d="M195.868,790.545c-17.417-19.753-33.014-41.148-46.524-63.928l-78.532,45.341
		c16.697,28.276,36.037,54.808,57.677,79.255L195.868,790.545z"/>
	<path fill="#010101" d="M419.949,923.247c-26.063-5.809-51.216-14.03-75.212-24.42l-36.887,82.849
		c29.721,12.937,60.909,23.132,93.245,30.272L419.949,923.247z"/>
	<path fill="#010101" d="M679.262,898.827c-23.997,10.391-49.149,18.611-75.213,24.42l18.854,88.702
		c32.335-7.142,63.523-17.337,93.244-30.273L679.262,898.827z"/>
	<path fill="#010101" d="M755.992,855.544c-21.415,15.237-44.319,28.516-68.446,39.589l36.886,82.846
		c29.943-13.673,58.34-30.144,84.854-49.084L755.992,855.544z"/>
	<path fill="#010101" d="M507.464,933.312c-26.893-0.284-53.18-3.09-78.64-8.188l-18.854,88.703
		c31.543,6.379,64.138,9.854,97.494,10.145V933.312z"/>
	<path fill="#010101" d="M595.176,925.124c-25.461,5.098-51.748,7.903-78.642,8.188v90.66c33.356-0.29,65.952-3.766,97.496-10.145
		L595.176,925.124z"/>
</g>
</svg>
