<?xml version="1.0" encoding="utf-8"?>
<!-- Generator: Adobe Illustrator 16.0.0, SVG Export Plug-In . SVG Version: 6.00 Build 0)  -->
<!DOCTYPE svg PUBLIC "-//W3C//DTD SVG 1.1//EN" "http://www.w3.org/Graphics/SVG/1.1/DTD/svg11.dtd">
<svg version="1.1" id="Layer_1" xmlns="http://www.w3.org/2000/svg" xmlns:xlink="http://www.w3.org/1999/xlink" x="0px" y="0px"
	 width="1024px" height="1024px" viewBox="0 0 1024 1024" enable-background="new 0 0 1024 1024" xml:space="preserve">
<g>
	<rect x="509.512" y="77.022" width="4.976" height="294.254"/>
	<rect x="731.478" y="584.044" width="290.034" height="4.976"/>
	<rect x="2.49" y="584.044" width="289.81" height="4.976"/>
	
		<rect x="767.325" y="183.815" transform="matrix(0.7071 0.7071 -0.7071 0.7071 457.9146 -448.0593)" width="4.975" height="289.815"/>
	
		<rect x="251.251" y="696.851" transform="matrix(0.7071 0.7072 -0.7072 0.7071 671.0297 67.7517)" width="4.976" height="293.899"/>
	
		<rect x="624.244" y="840.365" transform="matrix(0.7071 0.7071 -0.7071 0.7071 821.895 -298.5305)" width="294.127" height="4.976"/>
	
		<rect x="109.191" y="326.444" transform="matrix(0.7071 0.7071 -0.7071 0.7071 307.1024 -83.5461)" width="290.418" height="4.976"/>
	<path d="M1024,586.531h-4.976c0-279.573-227.449-507.022-507.022-507.022C232.43,79.509,4.981,306.958,4.981,586.531H0.005
		c0-69.118,13.538-136.17,40.236-199.293c25.788-60.969,62.704-115.724,109.724-162.744
		c47.021-47.021,101.775-83.938,162.744-109.725c63.124-26.699,130.175-40.236,199.293-40.236
		c69.117,0,136.169,13.537,199.293,40.236c60.968,25.788,115.723,62.705,162.743,109.726s83.938,101.775,109.725,162.744
		C1010.463,450.362,1024,517.414,1024,586.531z"/>
	<path d="M874.036,948.57l-3.519-3.518c95.766-95.767,148.505-223.093,148.505-358.521c0-279.574-227.45-507.024-507.024-507.024
		c-279.573,0-507.022,227.45-507.022,507.024c0,135.426,52.738,262.75,148.5,358.518l-3.519,3.518
		c-47.018-47.021-83.934-101.777-109.721-162.745C13.538,722.698,0,655.647,0,586.531c0-69.118,13.538-136.17,40.237-199.294
		c25.788-60.969,62.704-115.724,109.724-162.744c47.021-47.021,101.775-83.938,162.744-109.726
		c63.124-26.699,130.175-40.236,199.293-40.236s136.171,13.537,199.295,40.236c60.969,25.788,115.724,62.705,162.744,109.726
		s83.937,101.775,109.725,162.744c26.699,63.124,40.236,130.176,40.236,199.294s-13.537,136.171-40.237,199.295
		C957.973,846.794,921.057,901.55,874.036,948.57z"/>
</g>
</svg>
