<?xml version="1.0" encoding="utf-8"?>
<!-- Generator: Adobe Illustrator 16.0.0, SVG Export Plug-In . SVG Version: 6.00 Build 0)  -->
<!DOCTYPE svg PUBLIC "-//W3C//DTD SVG 1.1//EN" "http://www.w3.org/Graphics/SVG/1.1/DTD/svg11.dtd">
<svg version="1.1" id="Layer_1" xmlns="http://www.w3.org/2000/svg" xmlns:xlink="http://www.w3.org/1999/xlink" x="0px" y="0px"
	 width="1024px" height="1024px" viewBox="0 0 1024 1024" enable-background="new 0 0 1024 1024" xml:space="preserve">
<g>
	<path stroke="#000000" stroke-width="3.6368" stroke-miterlimit="10" d="M179.766,936.122
		c-25.512-0.004-46.186-20.687-46.183-46.194c0.005-25.51,20.684-46.185,46.192-46.181c25.51,0.003,46.187,20.686,46.183,46.194
		C225.955,915.45,205.274,936.126,179.766,936.122z"/>
	<path stroke="#000000" stroke-width="3.6368" stroke-miterlimit="10" d="M45.44,747.514c-22.813-11.421-32.046-39.17-20.628-61.979
		c11.422-22.81,39.166-32.044,61.975-20.626c22.812,11.419,32.047,39.169,20.627,61.979C95.996,749.697,68.25,758.933,45.44,747.514
		z"/>
	<circle stroke="#000000" stroke-width="3.6368" stroke-miterlimit="10" cx="48.312" cy="481.498" r="46.188"/>
	<path stroke="#000000" stroke-width="3.6368" stroke-miterlimit="10" d="M87.167,287.259c-3.881-25.215,13.412-48.798,38.623-52.68
		c25.213-3.88,48.796,13.409,52.677,38.62c3.881,25.212-13.411,48.798-38.623,52.68C114.632,329.76,91.047,312.47,87.167,287.259z"
		/>
	<circle stroke="#000000" stroke-width="3.6368" stroke-miterlimit="10" cx="296.086" cy="140.314" r="46.188"/>
	<circle stroke="#000000" stroke-width="3.6368" stroke-miterlimit="10" cx="512.002" cy="87.874" r="46.188"/>
	<path stroke="#000000" stroke-width="3.6368" stroke-miterlimit="10" d="M713.956,96.292c24.317-7.712,50.28,5.751,57.99,30.065
		c7.709,24.316-5.748,50.277-30.063,57.987c-24.316,7.711-50.28-5.75-57.99-30.066C676.182,129.964,689.641,104.002,713.956,96.292z
		"/>
	<path stroke="#000000" stroke-width="3.6368" stroke-miterlimit="10" d="M898.223,234.585
		c25.214,3.888,42.499,27.477,38.613,52.687c-3.889,25.212-27.474,42.499-52.684,38.612c-25.212-3.886-42.499-27.475-38.613-52.687
		C849.426,247.986,873.013,230.698,898.223,234.585z"/>
	<path stroke="#000000" stroke-width="3.6368" stroke-miterlimit="10" d="M1002.667,444.014c20.706,14.903,25.41,43.766,10.51,64.47
		c-14.902,20.704-43.763,25.41-64.466,10.51c-20.706-14.901-25.411-43.766-10.51-64.471
		C953.101,433.819,981.963,429.114,1002.667,444.014z"/>
	<path stroke="#000000" stroke-width="3.6368" stroke-miterlimit="10" d="M999.189,685.549
		c11.415,22.815,2.174,50.561-20.638,61.976c-22.813,11.414-50.559,2.175-61.973-20.636c-11.415-22.813-2.175-50.561,20.638-61.977
		C960.029,653.499,987.775,662.737,999.189,685.549z"/>
	<path stroke="#000000" stroke-width="3.6368" stroke-miterlimit="10" d="M890.414,889.94
		c-0.004,25.512-20.686,46.188-46.193,46.186c-25.51-0.004-46.186-20.682-46.184-46.189c0.002-25.51,20.684-46.188,46.193-46.186
		C869.738,843.753,890.416,864.433,890.414,889.94z"/>
</g>
</svg>
