<?xml version="1.0" encoding="utf-8"?>
<!-- Generator: Adobe Illustrator 16.0.0, SVG Export Plug-In . SVG Version: 6.00 Build 0)  -->
<!DOCTYPE svg PUBLIC "-//W3C//DTD SVG 1.1//EN" "http://www.w3.org/Graphics/SVG/1.1/DTD/svg11.dtd">
<svg version="1.1" id="Layer_2" xmlns="http://www.w3.org/2000/svg" xmlns:xlink="http://www.w3.org/1999/xlink" x="0px" y="0px"
	 width="1024px" height="1024px" viewBox="-37 -272 1024 1024" enable-background="new -37 -272 1024 1024" xml:space="preserve">
<g>
	<g>
		<circle cx="398.683" cy="240.002" r="193.276"/>
		<path d="M398.683,434.447c-107.218,0-194.446-87.229-194.446-194.447c0-107.217,87.229-194.444,194.446-194.444
			c107.217,0,194.442,87.228,194.442,194.444C593.125,347.219,505.9,434.447,398.683,434.447z M398.683,47.896
			c-105.928,0-192.107,86.178-192.107,192.104c0,105.93,86.179,192.108,192.107,192.108c105.927,0,192.104-86.179,192.104-192.108
			C590.787,134.073,504.61,47.896,398.683,47.896z"/>
	</g>
	<rect x="697.087" y="191.682" width="289.913" height="96.637"/>
	<path d="M396.36,673.358c-58.482,0-115.24-11.464-168.697-34.074c-51.609-21.829-97.95-53.069-137.734-92.853
		c-39.784-39.784-71.024-86.125-92.854-137.734C-25.535,355.24-37,298.482-37,240S-25.535,124.76-2.924,71.303
		c21.829-51.609,53.07-97.95,92.854-137.733c39.784-39.783,86.125-71.024,137.734-92.854
		c53.457-22.61,110.214-34.074,168.697-34.074c77.521,0,153.603,20.73,220.024,59.952C680.806-95.365,734.611-41,771.983,23.813
		l-81.073,46.748C630.327-34.505,517.462-99.773,396.36-99.773C209.008-99.773,56.586,52.648,56.586,240
		S209.008,579.773,396.36,579.773c121.1,0,233.961-65.269,294.54-170.335l81.075,46.746
		c-37.369,64.812-91.173,119.178-155.594,157.221C549.962,652.627,473.88,673.358,396.36,673.358z"/>
	<path id="path4184_3_" fill="#FFFFFF" d="M529.601,240"/>
	<path id="path4184_2_" fill="#FFFFFF" d="M239.69,240"/>
	<rect x="350.365" y="95.042" fill="#FFFFFF" width="96.637" height="289.912"/>
	<rect x="253.725" y="191.682" fill="#FFFFFF" width="289.916" height="96.637"/>
</g>
</svg>
