<?xml version="1.0" encoding="utf-8"?>
<!-- Generator: Adobe Illustrator 16.0.0, SVG Export Plug-In . SVG Version: 6.00 Build 0)  -->
<!DOCTYPE svg PUBLIC "-//W3C//DTD SVG 1.1//EN" "http://www.w3.org/Graphics/SVG/1.1/DTD/svg11.dtd">
<svg version="1.1" id="Layer_1" xmlns="http://www.w3.org/2000/svg" xmlns:xlink="http://www.w3.org/1999/xlink" x="0px" y="0px"
	 width="1024px" height="1024px" viewBox="0 0 1024 1024" enable-background="new 0 0 1024 1024" xml:space="preserve">
<g id="svg2" xmlns:rdf="http://www.w3.org/1999/02/22-rdf-syntax-ns#" xmlns:svg="http://www.w3.org/2000/svg" xmlns:cc="http://creativecommons.org/ns#" xmlns:sodipodi="http://sodipodi.sourceforge.net/DTD/sodipodi-0.dtd" xmlns:dc="http://purl.org/dc/elements/1.1/" xmlns:inkscape="http://www.inkscape.org/namespaces/inkscape" sodipodi:docname="center-negative.svg" inkscape:version="0.91 r13725" display="none">
	
		<sodipodi:namedview  units="px" fit-margin-left="2" inkscape:cy="169.24645" bordercolor="#666666" borderopacity="1.0" showgrid="true" inkscape:cx="440.42773" inkscape:zoom="1" showguides="true" fit-margin-top="2" pagecolor="#ffffff" inkscape:bbox-nodes="false" inkscape:snap-bbox-midpoints="true" inkscape:window-x="0" inkscape:window-maximized="1" inkscape:current-layer="layer1" inkscape:window-height="855" inkscape:guide-bbox="true" inkscape:pageopacity="0.0" inkscape:window-width="1440" inkscape:document-units="px" fit-margin-bottom="2" fit-margin-right="2" inkscape:snap-bbox="true" inkscape:pageshadow="2" inkscape:window-y="1" id="base">
		<inkscape:grid  type="xygrid" spacingy="10" spacingx="10" originy="0" originx="0" id="grid4136"></inkscape:grid>
		<sodipodi:guide  position="-30,240" orientation="0,1" id="guide4174"></sodipodi:guide>
	</sodipodi:namedview>
	
		<g id="layer1" transform="translate(-77.913386,256.55283)" inkscape:label="Layer 1" inkscape:groupmode="layer" display="inline">
		<circle id="path4138" stroke="#000000" stroke-width="2.8913" cx="597.914" cy="-16.552" r="82.609"/>
		
			<path id="path4180" sodipodi:open="true" sodipodi:cy="-16.55283" sodipodi:cx="597.91339" sodipodi:ry="165.21739" sodipodi:start="0.73207901" sodipodi:rx="165.21739" sodipodi:type="arc" sodipodi:end="5.5680375" fill="none" stroke="#000000" stroke-width="41.3043" d="
			M720.797,93.881c-45.909,51.09-118.642,68.442-182.673,43.588c-64.032-24.856-106.005-86.736-105.424-155.42
			s43.598-129.844,108.04-153.612c64.443-23.768,136.87-5.185,181.91,46.673"/>
		<path id="path4182" fill="none" stroke="#000000" stroke-width="41.3043" d="M147.914-78.509c0,123.914,0,123.914,0,123.914"/>
		<path id="path4184" fill="none" stroke="#000000" stroke-width="41.3043" d="M895.957-16.553c123.913,0,123.913,0,123.913,0"/>
		<path id="path4211" fill="none" stroke="#000000" stroke-width="41.3043" d="M85.957-16.553c123.913,0,123.913,0,123.913,0"/>
		<path id="path4232" fill="none" stroke="#000000" stroke-width="41.3043" d="M432.696-16.553c-165.217,0-165.217,0-165.217,0"/>
		<path id="path4245" fill="none" stroke="#000000" stroke-width="41.3043" d="M840.522-16.553c-165.22,0-165.22,0-165.22,0"/>
	</g>
</g>
<g>
	<g>
		<ellipse cx="436.091" cy="512.002" rx="193.407" ry="194.262"/>
		<path d="M436.091,707.438c-107.293,0-194.581-87.673-194.581-195.436c0-107.764,87.288-195.435,194.581-195.435
			c107.292,0,194.58,87.671,194.58,195.435C630.671,619.765,543.383,707.438,436.091,707.438z M436.091,318.914
			c-105.998,0-192.234,86.619-192.234,193.088S330.093,705.09,436.091,705.09c105.999,0,192.234-86.618,192.234-193.088
			S542.09,318.914,436.091,318.914z"/>
	</g>
	<rect x="830.356" y="367.103" width="99.331" height="290.969"/>
	<rect x="734.035" y="464.427" width="289.965" height="99.33"/>
	<path d="M433.767,947.467c-58.563,0-115.396-11.53-168.924-34.27c-51.663-21.947-98.049-53.355-137.867-93.349
		c-39.805-39.98-71.061-86.544-92.897-138.399C11.466,627.752,0,570.74,0,512c0-58.741,11.466-115.752,34.078-169.449
		c21.837-51.855,53.093-98.419,92.897-138.398c39.818-39.994,86.204-71.401,137.867-93.35c53.527-22.74,110.361-34.27,168.924-34.27
		c77.627,0,153.809,20.848,220.309,60.289c64.475,38.239,118.317,92.88,155.712,158.016l-81.398,46.729
		C667.776,235.981,554.883,170.39,433.767,170.39c-187.428,0-339.91,153.246-339.91,341.61
		c0,188.363,152.482,341.609,339.91,341.609c121.115,0,234.004-65.592,294.611-171.179l81.4,46.724
		c-37.39,65.137-91.231,119.78-155.707,158.022C587.572,926.618,511.392,947.467,433.767,947.467z"/>
	<path id="path4184_3_" fill="#FFFFFF" d="M567.103,512"/>
	<path id="path4184_2_" fill="#FFFFFF" d="M276.986,512"/>
	<rect x="290.56" y="464.427" fill="#FFFFFF" width="290.968" height="99.33"/>
</g>
</svg>
