<?xml version="1.0" encoding="utf-8"?>
<!-- Generator: Adobe Illustrator 16.0.0, SVG Export Plug-In . SVG Version: 6.00 Build 0)  -->
<!DOCTYPE svg PUBLIC "-//W3C//DTD SVG 1.1//EN" "http://www.w3.org/Graphics/SVG/1.1/DTD/svg11.dtd">
<svg version="1.1" id="Layer_1" xmlns="http://www.w3.org/2000/svg" xmlns:xlink="http://www.w3.org/1999/xlink" x="0px" y="0px"
	 width="1024px" height="1024px" viewBox="0 0 1024 1024" enable-background="new 0 0 1024 1024" xml:space="preserve">
<g>
	<polygon fill="#010101" points="112.003,579.934 157.292,579.934 157.292,534.644 202.579,534.644 202.579,489.354 
		157.292,489.354 157.292,444.066 112.003,444.066 112.003,489.354 66.713,489.354 66.713,534.644 112.003,534.644 	"/>
	<rect x="819.514" y="489.355" fill="#010101" width="135.866" height="45.289"/>
	<path fill="#010101" d="M997.071,377.354H781.637c-14.848,0-26.929,12.081-26.929,26.93v85.071H579.934v-45.288H444.066v135.867
		h135.867v-45.29h174.774v85.073c0,14.85,12.081,26.93,26.929,26.93h215.435c14.848,0,26.929-12.08,26.929-26.93V404.283
		C1024,389.435,1011.919,377.354,997.071,377.354z M988.875,611.521H789.833V412.479h199.042V611.521z"/>
	<path fill="#010101" d="M611.521,551.166v60.355H412.479V412.479h199.043v60.354h35.125v-68.55
		c0-14.849-12.082-26.929-26.93-26.929H404.283c-14.849,0-26.93,12.081-26.93,26.929v85.073H269.292v-85.073
		c0-14.849-12.081-26.929-26.929-26.929H26.929C12.081,377.354,0,389.434,0,404.282v215.435c0,14.85,12.081,26.93,26.929,26.93
		h215.434c14.849,0,26.929-12.08,26.929-26.93v-85.072h108.062v85.072c0,14.85,12.081,26.93,26.93,26.93h215.434
		c14.848,0,26.93-12.08,26.93-26.93v-68.551H611.521z M234.167,611.521H35.125V412.479h199.042V611.521z"/>
</g>
</svg>
