<?xml version="1.0" encoding="utf-8"?>
<!-- Generator: Adobe Illustrator 16.0.0, SVG Export Plug-In . SVG Version: 6.00 Build 0)  -->
<!DOCTYPE svg PUBLIC "-//W3C//DTD SVG 1.1//EN" "http://www.w3.org/Graphics/SVG/1.1/DTD/svg11.dtd">
<svg version="1.1" id="Layer_1" xmlns="http://www.w3.org/2000/svg" xmlns:xlink="http://www.w3.org/1999/xlink" x="0px" y="0px"
	 width="595.28px" height="595.28px" viewBox="0 0 595.28 595.28" enable-background="new 0 0 595.28 595.28" xml:space="preserve">
<line fill="none" stroke="#000000" stroke-width="5" stroke-miterlimit="10" x1="297.64" y1="39.64" x2="297.64" y2="188.641"/>
<line fill="none" stroke="#000000" stroke-width="5" stroke-miterlimit="10" x1="408.778" y1="297.64" x2="555.641" y2="297.64"/>
<line fill="none" stroke="#000000" stroke-width="5" stroke-miterlimit="10" x1="39.64" y1="297.64" x2="186.39" y2="297.64"/>
<line fill="none" stroke="#000000" stroke-width="5" stroke-miterlimit="10" x1="376.304" y1="218.978" x2="480.074" y2="115.207"/>
<line fill="none" stroke="#000000" stroke-width="5" stroke-miterlimit="10" x1="113.744" y1="481.537" x2="218.977" y2="376.304"/>
<line fill="none" stroke="#000000" stroke-width="5" stroke-miterlimit="10" x1="376.288" y1="376.288" x2="481.602" y2="481.602"/>
<line fill="none" stroke="#000000" stroke-width="5" stroke-miterlimit="10" x1="115.206" y1="115.206" x2="219.192" y2="219.192"/>
<path fill="none" stroke="#000000" stroke-width="5" stroke-miterlimit="10" d="M555.641,297.64c0-142.489-115.512-258-258-258
	c-142.489,0-258,115.511-258,258"/>
<path fill="none" stroke="#000000" stroke-width="5" stroke-miterlimit="10" d="M480.074,480.074
	c46.688-46.689,75.566-111.189,75.566-182.434c0-142.49-115.512-258.001-258.001-258.001s-258,115.511-258,258.001
	c0,71.243,28.877,135.742,75.564,182.431 M480.074,480.074 M115.204,480.071"/>
</svg>
