<?xml version="1.0" encoding="utf-8"?>
<!-- Generator: Adobe Illustrator 16.0.0, SVG Export Plug-In . SVG Version: 6.00 Build 0)  -->
<!DOCTYPE svg PUBLIC "-//W3C//DTD SVG 1.1//EN" "http://www.w3.org/Graphics/SVG/1.1/DTD/svg11.dtd">
<svg version="1.1" id="Layer_2" xmlns="http://www.w3.org/2000/svg" xmlns:xlink="http://www.w3.org/1999/xlink" x="0px" y="0px"
	 width="950px" height="480px" viewBox="0 0 950 480" enable-background="new 0 0 950 480" xml:space="preserve">
<circle stroke="#000000" cx="519.127" cy="240" r="82.609"/>
<path id="path4211_1_"  fill="none" stroke="#000000" stroke-width="41.3043" d="M646.67,240
	c123.914,0,123.914,0,123.914,0"/>
<path fill="none" stroke="#000000" stroke-width="40" d="M661.356,157.588c-28.539-49.494-81.984-82.813-143.221-82.813
	c-91.251,0-165.225,73.974-165.225,165.225c0,91.251,73.974,165.225,165.225,165.225c61.236,0,114.68-33.32,143.217-82.815"/>
<path id="path4184_3_"  fill="#FFFFFF" d="M575.084,240"/>
<path id="path4184_2_"  fill="#FFFFFF" d="M451.171,240"/>
<text transform="matrix(1 0 0 1 147.5027 300.3516)" font-family="'Impact'" font-size="150">9V</text>
<path id="path4182_2_"  fill="none" stroke="#FFFFFF" stroke-width="41.3043" d="M519.127,178.042
	c0,123.913,0,123.913,0,123.913"/>
<path id="path4211_2_"  fill="none" stroke="#FFFFFF" stroke-width="41.3043" d="M457.17,240
	c123.914,0,123.914,0,123.914,0"/>
</svg>
