<?xml version="1.0" encoding="utf-8"?>
<!-- Generator: Adobe Illustrator 16.0.0, SVG Export Plug-In . SVG Version: 6.00 Build 0)  -->
<!DOCTYPE svg PUBLIC "-//W3C//DTD SVG 1.1//EN" "http://www.w3.org/Graphics/SVG/1.1/DTD/svg11.dtd">
<svg version="1.1" xmlns="http://www.w3.org/2000/svg" xmlns:xlink="http://www.w3.org/1999/xlink" x="0px" y="0px" width="950px"
	 height="480px" viewBox="0 0 950 480" enable-background="new 0 0 950 480" xml:space="preserve">
<g id="svg2" xmlns:dc="http://purl.org/dc/elements/1.1/" xmlns:cc="http://creativecommons.org/ns#" xmlns:rdf="http://www.w3.org/1999/02/22-rdf-syntax-ns#" xmlns:svg="http://www.w3.org/2000/svg" xmlns:sodipodi="http://sodipodi.sourceforge.net/DTD/sodipodi-0.dtd" xmlns:inkscape="http://www.inkscape.org/namespaces/inkscape" sodipodi:docname="center-negative.svg" inkscape:version="0.91 r13725" display="none">
	
		<sodipodi:namedview  units="px" fit-margin-left="2" fit-margin-top="2" showguides="true" showgrid="true" inkscape:cy="169.24645" inkscape:cx="440.42773" inkscape:zoom="1" borderopacity="1.0" bordercolor="#666666" pagecolor="#ffffff" id="base" inkscape:window-maximized="1" inkscape:window-y="1" inkscape:window-x="0" inkscape:window-height="855" inkscape:window-width="1440" inkscape:bbox-nodes="false" inkscape:guide-bbox="true" fit-margin-bottom="2" fit-margin-right="2" inkscape:document-units="px" inkscape:snap-bbox="true" inkscape:snap-bbox-midpoints="true" inkscape:pageshadow="2" inkscape:current-layer="layer1" inkscape:pageopacity="0.0">
		<inkscape:grid  spacingy="10" spacingx="10" originy="0" originx="0" type="xygrid" id="grid4136"></inkscape:grid>
		<sodipodi:guide  orientation="0,1" position="-30,240" id="guide4174"></sodipodi:guide>
	</sodipodi:namedview>
	
		<g id="layer1" transform="translate(-77.913386,256.55283)" inkscape:label="Layer 1" inkscape:groupmode="layer" display="inline">
		<circle id="path4138" stroke="#000000" stroke-width="2.8913" cx="597.914" cy="-16.552" r="82.609"/>
		
			<path id="path4180" sodipodi:open="true" sodipodi:end="5.5680375" sodipodi:start="0.73207901" sodipodi:ry="165.21739" sodipodi:rx="165.21739" sodipodi:cy="-16.55283" sodipodi:cx="597.91339" sodipodi:type="arc" fill="none" stroke="#000000" stroke-width="41.3043" d="
			M720.799,93.881c-45.911,51.089-118.642,68.442-182.673,43.587c-64.032-24.855-106.006-86.735-105.425-155.419
			c0.581-68.684,43.598-129.844,108.04-153.612c64.443-23.768,136.87-5.185,181.91,46.673"/>
		<path id="path4182"  fill="none" stroke="#000000" stroke-width="41.3043" d="M147.914-78.509
			c0,123.914,0,123.914,0,123.914"/>
		<path id="path4184"  fill="none" stroke="#000000" stroke-width="41.3043" d="M895.957-16.553
			c123.913,0,123.913,0,123.913,0"/>
		<path id="path4211"  fill="none" stroke="#000000" stroke-width="41.3043" d="M85.957-16.553
			c123.913,0,123.913,0,123.913,0"/>
		<path id="path4232"  fill="none" stroke="#000000" stroke-width="41.3043" d="M432.696-16.553
			c-165.217,0-165.217,0-165.217,0"/>
		<path id="path4245"  fill="none" stroke="#000000" stroke-width="41.3043" d="M840.522-16.553
			c-165.218,0-165.218,0-165.218,0"/>
	</g>
</g>
<g id="Layer_2">
	<g>
		<circle stroke="#000000" cx="519.127" cy="240" r="82.609"/>
		<path id="path4182_1_"  fill="none" stroke="#000000" stroke-width="41.3043" d="
			M708.627,178.043c0,123.913,0,123.913,0,123.913"/>
		<path id="path4211_1_"  fill="none" stroke="#000000" stroke-width="41.3043" d="M646.67,240
			c123.914,0,123.914,0,123.914,0"/>
		<path fill="none" stroke="#000000" stroke-width="40" d="M661.356,157.588c-28.539-49.494-81.984-82.813-143.221-82.813
			c-91.251,0-165.225,73.974-165.225,165.225c0,91.251,73.974,165.225,165.225,165.225c61.236,0,114.68-33.32,143.217-82.815"/>
		<path id="path4184_3_"  fill="#FFFFFF" d="M575.084,240"/>
		<path id="path4184_2_"  fill="#FFFFFF" d="M451.171,240"/>
		<path id="path4211_2_"  fill="none" stroke="#FFFFFF" stroke-width="41.3043" d="M457.171,240
			c123.914,0,123.914,0,123.914,0"/>
		<text transform="matrix(1 0 0 1 147.5027 300.3516)" font-family="'Impact'" font-size="150">9V</text>
	</g>
</g>
</svg>
